<?xml version="1.0" standalone="no"?>
<!DOCTYPE svg PUBLIC "-//W3C//DTD SVG 20010904//EN"
 "http://www.w3.org/TR/2001/REC-SVG-20010904/DTD/svg10.dtd">
<svg version="1.0" xmlns="http://www.w3.org/2000/svg"
 width="1200.000000pt" height="1200.000000pt" viewBox="0 0 1200.000000 1200.000000"
 preserveAspectRatio="xMidYMid meet">
<metadata>
Created by potrace 1.14, written by Peter Selinger 2001-2017
</metadata>
<g transform="translate(0.000000,1200.000000) scale(0.100000,-0.100000)"
fill="#000000" stroke="none">
<path d="M3594 9628 c-4 -29 -8 -55 -9 -58 -8 -36 -15 -72 -20 -105 -3 -22 -7
-47 -10 -55 -2 -8 -6 -37 -9 -63 -3 -27 -8 -52 -10 -56 -3 -3 -7 -28 -10 -54
-3 -26 -8 -57 -11 -69 -2 -13 -7 -36 -10 -53 -3 -16 -17 -95 -31 -175 -14 -80
-27 -156 -29 -170 -3 -14 -7 -35 -9 -46 -2 -12 -7 -39 -10 -60 -4 -22 -21
-118 -38 -214 -17 -96 -32 -184 -33 -195 -2 -11 -12 -72 -24 -135 -11 -63 -23
-132 -26 -152 l-6 -38 1560 -2 1560 -3 -41 -45 c-22 -25 -64 -70 -92 -101 -67
-73 -207 -227 -226 -249 -22 -25 -161 -178 -190 -210 -14 -15 -57 -62 -94
-104 -38 -42 -78 -87 -90 -99 -58 -64 -181 -199 -197 -219 l-19 -21 -1178 -1
-1177 -1 -12 -60 c-7 -33 -14 -79 -17 -102 -3 -24 -8 -53 -11 -65 -6 -28 -14
-72 -21 -113 -3 -16 -21 -120 -40 -230 -20 -110 -37 -212 -40 -227 -7 -45 -13
-81 -18 -108 -6 -31 -36 -204 -43 -245 -2 -16 -17 -102 -33 -190 -15 -88 -31
-178 -34 -200 -9 -57 -16 -95 -24 -135 -5 -19 -8 -44 -7 -55 0 -19 11 -19 533
-19 292 0 532 -1 532 -3 0 -2 -10 -14 -23 -26 -12 -12 -60 -65 -107 -117 -47
-52 -89 -100 -95 -106 -5 -6 -44 -48 -85 -94 -41 -45 -86 -95 -100 -110 -14
-15 -59 -64 -100 -110 -41 -46 -86 -95 -100 -110 -14 -15 -59 -64 -100 -110
-41 -47 -82 -91 -90 -100 -13 -14 -180 -198 -205 -226 -5 -6 -47 -51 -91 -100
-129 -141 -180 -197 -207 -229 -24 -29 -35 -70 -52 -190 -4 -22 -9 -49 -12
-60 -3 -11 -7 -31 -8 -45 -1 -14 -5 -38 -8 -55 -4 -16 -9 -43 -11 -60 -8 -49
-45 -264 -61 -350 -15 -85 -20 -111 -32 -184 -4 -25 -7 -48 -8 -51 -1 -3 -4
-18 -8 -35 -3 -16 -9 -46 -11 -65 -3 -19 -8 -48 -11 -65 -6 -29 -20 -111 -29
-170 l-6 -31 3044 1 c1675 0 3048 3 3051 7 6 6 40 182 60 308 3 20 8 47 10 60
3 14 19 104 35 200 17 96 32 186 35 200 4 21 16 91 40 229 2 13 8 45 12 70 4
25 8 48 8 51 1 3 5 25 9 50 4 25 14 77 21 115 8 39 17 90 20 115 4 25 11 68
16 95 6 28 12 68 15 89 3 22 7 43 9 46 2 3 6 30 10 60 l6 55 -1585 0 c-872 0
-1586 2 -1586 4 0 5 65 77 265 295 8 9 175 193 210 232 17 18 179 195 205 224
44 48 186 203 228 250 l40 45 1201 1 c661 0 1203 3 1205 5 3 2 7 18 10 34 3
17 8 41 10 55 3 14 8 41 10 60 3 19 8 46 10 60 7 39 45 252 50 285 3 17 8 46
11 65 3 19 8 42 10 50 3 13 8 43 20 115 1 11 13 76 25 145 12 69 24 139 26
155 3 17 9 53 15 80 5 28 11 64 13 80 3 17 14 82 26 145 12 63 24 133 26 155
3 22 14 85 25 140 10 55 19 105 19 111 0 8 -159 11 -542 12 -299 0 -549 1
-556 1 -7 1 4 20 25 42 21 23 49 54 63 69 69 75 133 145 205 225 44 49 87 96
95 104 21 23 121 131 217 236 44 50 92 102 105 116 12 14 57 63 98 109 41 45
86 95 100 110 96 103 203 221 218 237 9 11 53 60 98 109 45 49 94 104 111 122
28 31 35 56 59 207 6 38 13 81 33 190 11 61 22 126 25 145 4 19 8 46 11 60 3
14 7 41 10 60 10 62 15 91 55 320 49 277 51 290 56 318 l4 22 -3049 0 -3049 0
-8 -52z"/>
</g>
</svg>
